G04 (created by PCBNEW (2013-02-02 BZR 3928)-testing) date Mon 15 Sep 2014 08:44:21 BST*
%MOIN*%
G04 Gerber Fmt 3.4, Leading zero omitted, Abs format*
%FSLAX34Y34*%
G01*
G70*
G90*
G04 APERTURE LIST*
%ADD10C,0.005*%
%ADD11C,0.00590551*%
%ADD12C,0.00787402*%
%ADD13C,0.011811*%
G04 APERTURE END LIST*
G54D10*
G54D11*
X25196Y-9251D02*
G75*
G03X22047Y-9251I-1574J0D01*
G74*
G01*
X22047Y-11023D02*
X22047Y-9251D01*
X18700Y-12795D02*
X22047Y-11023D01*
X25196Y-11023D02*
X25196Y-9251D01*
X28543Y-12795D02*
X25196Y-11023D01*
X18700Y-12795D02*
X18700Y-25787D01*
X28543Y-12795D02*
X28543Y-25787D01*
X28543Y-25787D02*
X18700Y-25787D01*
G54D12*
X22962Y-9091D02*
X23282Y-9411D01*
X23282Y-9091D02*
X22962Y-9411D01*
X23962Y-9091D02*
X24282Y-9411D01*
X24282Y-9091D02*
X23962Y-9411D01*
X19852Y-20866D02*
G75*
G03X19852Y-20866I-364J0D01*
G74*
G01*
X28120Y-20866D02*
G75*
G03X28120Y-20866I-364J0D01*
G74*
G01*
G54D13*
X19739Y-27594D02*
X19739Y-26413D01*
X20021Y-26413D01*
X20189Y-26469D01*
X20302Y-26581D01*
X20358Y-26694D01*
X20414Y-26919D01*
X20414Y-27088D01*
X20358Y-27312D01*
X20302Y-27425D01*
X20189Y-27537D01*
X20021Y-27594D01*
X19739Y-27594D01*
X20920Y-27594D02*
X20920Y-26806D01*
X20920Y-27031D02*
X20977Y-26919D01*
X21033Y-26863D01*
X21145Y-26806D01*
X21258Y-26806D01*
X21652Y-27594D02*
X21652Y-26806D01*
X21652Y-26413D02*
X21595Y-26469D01*
X21652Y-26525D01*
X21708Y-26469D01*
X21652Y-26413D01*
X21652Y-26525D01*
X22383Y-27594D02*
X22270Y-27537D01*
X22214Y-27425D01*
X22214Y-26413D01*
X23001Y-27594D02*
X22889Y-27537D01*
X22833Y-27425D01*
X22833Y-26413D01*
X24351Y-27594D02*
X24351Y-26413D01*
X24745Y-27256D01*
X25139Y-26413D01*
X25139Y-27594D01*
X26207Y-27594D02*
X26207Y-26975D01*
X26151Y-26863D01*
X26039Y-26806D01*
X25814Y-26806D01*
X25701Y-26863D01*
X26207Y-27537D02*
X26095Y-27594D01*
X25814Y-27594D01*
X25701Y-27537D01*
X25645Y-27425D01*
X25645Y-27312D01*
X25701Y-27200D01*
X25814Y-27144D01*
X26095Y-27144D01*
X26207Y-27088D01*
X26770Y-26806D02*
X26770Y-27987D01*
X26770Y-26863D02*
X26882Y-26806D01*
X27107Y-26806D01*
X27220Y-26863D01*
X27276Y-26919D01*
X27332Y-27031D01*
X27332Y-27369D01*
X27276Y-27481D01*
X27220Y-27537D01*
X27107Y-27594D01*
X26882Y-27594D01*
X26770Y-27537D01*
X27838Y-27481D02*
X27895Y-27537D01*
X27838Y-27594D01*
X27782Y-27537D01*
X27838Y-27481D01*
X27838Y-27594D01*
X27838Y-26863D02*
X27895Y-26919D01*
X27838Y-26975D01*
X27782Y-26919D01*
X27838Y-26863D01*
X27838Y-26975D01*
X18351Y-29436D02*
X18671Y-29756D01*
X18671Y-29436D02*
X18351Y-29756D01*
X19964Y-28893D02*
X20077Y-28893D01*
X20189Y-28949D01*
X20246Y-29005D01*
X20302Y-29118D01*
X20358Y-29343D01*
X20358Y-29624D01*
X20302Y-29849D01*
X20246Y-29962D01*
X20189Y-30018D01*
X20077Y-30074D01*
X19964Y-30074D01*
X19852Y-30018D01*
X19796Y-29962D01*
X19739Y-29849D01*
X19683Y-29624D01*
X19683Y-29343D01*
X19739Y-29118D01*
X19796Y-29005D01*
X19852Y-28949D01*
X19964Y-28893D01*
X20864Y-29962D02*
X20920Y-30018D01*
X20864Y-30074D01*
X20808Y-30018D01*
X20864Y-29962D01*
X20864Y-30074D01*
X21595Y-29399D02*
X21483Y-29343D01*
X21427Y-29287D01*
X21370Y-29174D01*
X21370Y-29118D01*
X21427Y-29005D01*
X21483Y-28949D01*
X21595Y-28893D01*
X21820Y-28893D01*
X21933Y-28949D01*
X21989Y-29005D01*
X22045Y-29118D01*
X22045Y-29174D01*
X21989Y-29287D01*
X21933Y-29343D01*
X21820Y-29399D01*
X21595Y-29399D01*
X21483Y-29455D01*
X21427Y-29512D01*
X21370Y-29624D01*
X21370Y-29849D01*
X21427Y-29962D01*
X21483Y-30018D01*
X21595Y-30074D01*
X21820Y-30074D01*
X21933Y-30018D01*
X21989Y-29962D01*
X22045Y-29849D01*
X22045Y-29624D01*
X21989Y-29512D01*
X21933Y-29455D01*
X21820Y-29399D01*
X23170Y-30074D02*
X22495Y-30074D01*
X22833Y-30074D02*
X22833Y-28893D01*
X22720Y-29062D01*
X22608Y-29174D01*
X22495Y-29230D01*
X23676Y-30074D02*
X23676Y-29287D01*
X23676Y-29399D02*
X23733Y-29343D01*
X23845Y-29287D01*
X24014Y-29287D01*
X24126Y-29343D01*
X24183Y-29455D01*
X24183Y-30074D01*
X24183Y-29455D02*
X24239Y-29343D01*
X24351Y-29287D01*
X24520Y-29287D01*
X24633Y-29343D01*
X24689Y-29455D01*
X24689Y-30074D01*
X25251Y-30074D02*
X25251Y-29287D01*
X25251Y-29399D02*
X25307Y-29343D01*
X25420Y-29287D01*
X25589Y-29287D01*
X25701Y-29343D01*
X25757Y-29455D01*
X25757Y-30074D01*
X25757Y-29455D02*
X25814Y-29343D01*
X25926Y-29287D01*
X26095Y-29287D01*
X26207Y-29343D01*
X26264Y-29455D01*
X26264Y-30074D01*
X28570Y-28837D02*
X27557Y-30355D01*
X30088Y-28893D02*
X30201Y-28893D01*
X30313Y-28949D01*
X30369Y-29005D01*
X30426Y-29118D01*
X30482Y-29343D01*
X30482Y-29624D01*
X30426Y-29849D01*
X30369Y-29962D01*
X30313Y-30018D01*
X30201Y-30074D01*
X30088Y-30074D01*
X29976Y-30018D01*
X29919Y-29962D01*
X29863Y-29849D01*
X29807Y-29624D01*
X29807Y-29343D01*
X29863Y-29118D01*
X29919Y-29005D01*
X29976Y-28949D01*
X30088Y-28893D01*
X30988Y-29962D02*
X31044Y-30018D01*
X30988Y-30074D01*
X30932Y-30018D01*
X30988Y-29962D01*
X30988Y-30074D01*
X31775Y-28893D02*
X31888Y-28893D01*
X32000Y-28949D01*
X32057Y-29005D01*
X32113Y-29118D01*
X32169Y-29343D01*
X32169Y-29624D01*
X32113Y-29849D01*
X32057Y-29962D01*
X32000Y-30018D01*
X31888Y-30074D01*
X31775Y-30074D01*
X31663Y-30018D01*
X31607Y-29962D01*
X31550Y-29849D01*
X31494Y-29624D01*
X31494Y-29343D01*
X31550Y-29118D01*
X31607Y-29005D01*
X31663Y-28949D01*
X31775Y-28893D01*
X32563Y-28893D02*
X33294Y-28893D01*
X32900Y-29343D01*
X33069Y-29343D01*
X33181Y-29399D01*
X33238Y-29455D01*
X33294Y-29568D01*
X33294Y-29849D01*
X33238Y-29962D01*
X33181Y-30018D01*
X33069Y-30074D01*
X32732Y-30074D01*
X32619Y-30018D01*
X32563Y-29962D01*
X33744Y-29005D02*
X33800Y-28949D01*
X33913Y-28893D01*
X34194Y-28893D01*
X34306Y-28949D01*
X34363Y-29005D01*
X34419Y-29118D01*
X34419Y-29230D01*
X34363Y-29399D01*
X33688Y-30074D01*
X34419Y-30074D01*
X34869Y-28893D02*
X34869Y-29118D01*
X35319Y-28893D02*
X35319Y-29118D01*
X37062Y-30524D02*
X37006Y-30468D01*
X36893Y-30299D01*
X36837Y-30187D01*
X36781Y-30018D01*
X36725Y-29737D01*
X36725Y-29512D01*
X36781Y-29230D01*
X36837Y-29062D01*
X36893Y-28949D01*
X37006Y-28780D01*
X37062Y-28724D01*
X37456Y-29005D02*
X37512Y-28949D01*
X37625Y-28893D01*
X37906Y-28893D01*
X38018Y-28949D01*
X38075Y-29005D01*
X38131Y-29118D01*
X38131Y-29230D01*
X38075Y-29399D01*
X37400Y-30074D01*
X38131Y-30074D01*
X39537Y-30074D02*
X39537Y-28893D01*
X40043Y-30074D02*
X40043Y-29455D01*
X39987Y-29343D01*
X39874Y-29287D01*
X39706Y-29287D01*
X39593Y-29343D01*
X39537Y-29399D01*
X40774Y-30074D02*
X40662Y-30018D01*
X40606Y-29962D01*
X40549Y-29849D01*
X40549Y-29512D01*
X40606Y-29399D01*
X40662Y-29343D01*
X40774Y-29287D01*
X40943Y-29287D01*
X41055Y-29343D01*
X41112Y-29399D01*
X41168Y-29512D01*
X41168Y-29849D01*
X41112Y-29962D01*
X41055Y-30018D01*
X40943Y-30074D01*
X40774Y-30074D01*
X41843Y-30074D02*
X41730Y-30018D01*
X41674Y-29905D01*
X41674Y-28893D01*
X42743Y-30018D02*
X42630Y-30074D01*
X42405Y-30074D01*
X42293Y-30018D01*
X42237Y-29905D01*
X42237Y-29455D01*
X42293Y-29343D01*
X42405Y-29287D01*
X42630Y-29287D01*
X42743Y-29343D01*
X42799Y-29455D01*
X42799Y-29568D01*
X42237Y-29680D01*
X43249Y-30018D02*
X43361Y-30074D01*
X43586Y-30074D01*
X43699Y-30018D01*
X43755Y-29905D01*
X43755Y-29849D01*
X43699Y-29737D01*
X43586Y-29680D01*
X43418Y-29680D01*
X43305Y-29624D01*
X43249Y-29512D01*
X43249Y-29455D01*
X43305Y-29343D01*
X43418Y-29287D01*
X43586Y-29287D01*
X43699Y-29343D01*
X44149Y-30524D02*
X44205Y-30468D01*
X44318Y-30299D01*
X44374Y-30187D01*
X44430Y-30018D01*
X44486Y-29737D01*
X44486Y-29512D01*
X44430Y-29230D01*
X44374Y-29062D01*
X44318Y-28949D01*
X44205Y-28780D01*
X44149Y-28724D01*
G54D12*
X18671Y-31155D02*
G75*
G03X18671Y-31155I-364J0D01*
G74*
G01*
G54D13*
X20358Y-31633D02*
X19683Y-31633D01*
X20021Y-31633D02*
X20021Y-30452D01*
X19908Y-30621D01*
X19796Y-30733D01*
X19683Y-30789D01*
X20864Y-31521D02*
X20920Y-31577D01*
X20864Y-31633D01*
X20808Y-31577D01*
X20864Y-31521D01*
X20864Y-31633D01*
X21595Y-30958D02*
X21483Y-30902D01*
X21427Y-30846D01*
X21370Y-30733D01*
X21370Y-30677D01*
X21427Y-30564D01*
X21483Y-30508D01*
X21595Y-30452D01*
X21820Y-30452D01*
X21933Y-30508D01*
X21989Y-30564D01*
X22045Y-30677D01*
X22045Y-30733D01*
X21989Y-30846D01*
X21933Y-30902D01*
X21820Y-30958D01*
X21595Y-30958D01*
X21483Y-31014D01*
X21427Y-31071D01*
X21370Y-31183D01*
X21370Y-31408D01*
X21427Y-31521D01*
X21483Y-31577D01*
X21595Y-31633D01*
X21820Y-31633D01*
X21933Y-31577D01*
X21989Y-31521D01*
X22045Y-31408D01*
X22045Y-31183D01*
X21989Y-31071D01*
X21933Y-31014D01*
X21820Y-30958D01*
X23114Y-30452D02*
X22552Y-30452D01*
X22495Y-31014D01*
X22552Y-30958D01*
X22664Y-30902D01*
X22945Y-30902D01*
X23058Y-30958D01*
X23114Y-31014D01*
X23170Y-31127D01*
X23170Y-31408D01*
X23114Y-31521D01*
X23058Y-31577D01*
X22945Y-31633D01*
X22664Y-31633D01*
X22552Y-31577D01*
X22495Y-31521D01*
X23676Y-31633D02*
X23676Y-30846D01*
X23676Y-30958D02*
X23733Y-30902D01*
X23845Y-30846D01*
X24014Y-30846D01*
X24126Y-30902D01*
X24183Y-31014D01*
X24183Y-31633D01*
X24183Y-31014D02*
X24239Y-30902D01*
X24351Y-30846D01*
X24520Y-30846D01*
X24633Y-30902D01*
X24689Y-31014D01*
X24689Y-31633D01*
X25251Y-31633D02*
X25251Y-30846D01*
X25251Y-30958D02*
X25307Y-30902D01*
X25420Y-30846D01*
X25589Y-30846D01*
X25701Y-30902D01*
X25757Y-31014D01*
X25757Y-31633D01*
X25757Y-31014D02*
X25814Y-30902D01*
X25926Y-30846D01*
X26095Y-30846D01*
X26207Y-30902D01*
X26264Y-31014D01*
X26264Y-31633D01*
X28570Y-30396D02*
X27557Y-31914D01*
X30088Y-30452D02*
X30201Y-30452D01*
X30313Y-30508D01*
X30369Y-30564D01*
X30426Y-30677D01*
X30482Y-30902D01*
X30482Y-31183D01*
X30426Y-31408D01*
X30369Y-31521D01*
X30313Y-31577D01*
X30201Y-31633D01*
X30088Y-31633D01*
X29976Y-31577D01*
X29919Y-31521D01*
X29863Y-31408D01*
X29807Y-31183D01*
X29807Y-30902D01*
X29863Y-30677D01*
X29919Y-30564D01*
X29976Y-30508D01*
X30088Y-30452D01*
X30988Y-31521D02*
X31044Y-31577D01*
X30988Y-31633D01*
X30932Y-31577D01*
X30988Y-31521D01*
X30988Y-31633D01*
X31775Y-30452D02*
X31888Y-30452D01*
X32000Y-30508D01*
X32057Y-30564D01*
X32113Y-30677D01*
X32169Y-30902D01*
X32169Y-31183D01*
X32113Y-31408D01*
X32057Y-31521D01*
X32000Y-31577D01*
X31888Y-31633D01*
X31775Y-31633D01*
X31663Y-31577D01*
X31607Y-31521D01*
X31550Y-31408D01*
X31494Y-31183D01*
X31494Y-30902D01*
X31550Y-30677D01*
X31607Y-30564D01*
X31663Y-30508D01*
X31775Y-30452D01*
X32563Y-30452D02*
X33350Y-30452D01*
X32844Y-31633D01*
X33688Y-30452D02*
X34419Y-30452D01*
X34025Y-30902D01*
X34194Y-30902D01*
X34306Y-30958D01*
X34363Y-31014D01*
X34419Y-31127D01*
X34419Y-31408D01*
X34363Y-31521D01*
X34306Y-31577D01*
X34194Y-31633D01*
X33856Y-31633D01*
X33744Y-31577D01*
X33688Y-31521D01*
X34869Y-30452D02*
X34869Y-30677D01*
X35319Y-30452D02*
X35319Y-30677D01*
X37062Y-32083D02*
X37006Y-32027D01*
X36893Y-31858D01*
X36837Y-31746D01*
X36781Y-31577D01*
X36725Y-31296D01*
X36725Y-31071D01*
X36781Y-30789D01*
X36837Y-30621D01*
X36893Y-30508D01*
X37006Y-30339D01*
X37062Y-30283D01*
X37456Y-30564D02*
X37512Y-30508D01*
X37625Y-30452D01*
X37906Y-30452D01*
X38018Y-30508D01*
X38075Y-30564D01*
X38131Y-30677D01*
X38131Y-30789D01*
X38075Y-30958D01*
X37400Y-31633D01*
X38131Y-31633D01*
X39537Y-31633D02*
X39537Y-30452D01*
X40043Y-31633D02*
X40043Y-31014D01*
X39987Y-30902D01*
X39874Y-30846D01*
X39706Y-30846D01*
X39593Y-30902D01*
X39537Y-30958D01*
X40774Y-31633D02*
X40662Y-31577D01*
X40606Y-31521D01*
X40549Y-31408D01*
X40549Y-31071D01*
X40606Y-30958D01*
X40662Y-30902D01*
X40774Y-30846D01*
X40943Y-30846D01*
X41055Y-30902D01*
X41112Y-30958D01*
X41168Y-31071D01*
X41168Y-31408D01*
X41112Y-31521D01*
X41055Y-31577D01*
X40943Y-31633D01*
X40774Y-31633D01*
X41843Y-31633D02*
X41730Y-31577D01*
X41674Y-31464D01*
X41674Y-30452D01*
X42743Y-31577D02*
X42630Y-31633D01*
X42405Y-31633D01*
X42293Y-31577D01*
X42237Y-31464D01*
X42237Y-31014D01*
X42293Y-30902D01*
X42405Y-30846D01*
X42630Y-30846D01*
X42743Y-30902D01*
X42799Y-31014D01*
X42799Y-31127D01*
X42237Y-31239D01*
X43249Y-31577D02*
X43361Y-31633D01*
X43586Y-31633D01*
X43699Y-31577D01*
X43755Y-31464D01*
X43755Y-31408D01*
X43699Y-31296D01*
X43586Y-31239D01*
X43418Y-31239D01*
X43305Y-31183D01*
X43249Y-31071D01*
X43249Y-31014D01*
X43305Y-30902D01*
X43418Y-30846D01*
X43586Y-30846D01*
X43699Y-30902D01*
X44149Y-32083D02*
X44205Y-32027D01*
X44318Y-31858D01*
X44374Y-31746D01*
X44430Y-31577D01*
X44486Y-31296D01*
X44486Y-31071D01*
X44430Y-30789D01*
X44374Y-30621D01*
X44318Y-30508D01*
X44205Y-30339D01*
X44149Y-30283D01*
M02*
