G04 (created by PCBNEW (2013-02-02 BZR 3928)-testing) date Mon 15 Sep 2014 08:44:07 BST*
%MOIN*%
G04 Gerber Fmt 3.4, Leading zero omitted, Abs format*
%FSLAX34Y34*%
G01*
G70*
G90*
G04 APERTURE LIST*
%ADD10C,0.006*%
%ADD11C,0.00590551*%
%ADD12C,0.066*%
%ADD13C,0.551181*%
%ADD14O,0.0984252X0.137795*%
%ADD15R,0.393701X0.19685*%
%ADD16C,0.01*%
G04 APERTURE END LIST*
G54D10*
G54D11*
X25196Y-9251D02*
G75*
G03X22047Y-9251I-1574J0D01*
G74*
G01*
X22047Y-11023D02*
X22047Y-9251D01*
X18700Y-12795D02*
X22047Y-11023D01*
X25196Y-11023D02*
X25196Y-9251D01*
X28543Y-12795D02*
X25196Y-11023D01*
X18700Y-12795D02*
X18700Y-25787D01*
X28543Y-12795D02*
X28543Y-25787D01*
X28543Y-25787D02*
X18700Y-25787D01*
G54D12*
X24122Y-9251D03*
X23122Y-9251D03*
G54D13*
X23622Y-20866D03*
G54D14*
X27755Y-20866D03*
X19488Y-20866D03*
G54D15*
X23622Y-13779D03*
G54D16*
X27755Y-17913D02*
X27755Y-12992D01*
X27755Y-20866D02*
X27755Y-17913D01*
X24212Y-11023D02*
X24122Y-9251D01*
X27755Y-12992D02*
X24212Y-11023D01*
X23122Y-9251D02*
X23031Y-11023D01*
X20472Y-17716D02*
X23622Y-20866D01*
X19488Y-16732D02*
X20472Y-17716D01*
X19488Y-12992D02*
X19488Y-16732D01*
X23031Y-11023D02*
X19488Y-12992D01*
M02*
